/* XPM */
static char * phylogram_xpm[] = {
        /* columns rows colors chars-per-pixel */
        "16 16 2 1",
        "  c None",
        "a c Black",
        /* pixels */
        "                ",
        "                ",
        "    aaaaaaa     ",
        "    a           ",
        "  aaa           ",
        "  a a           ",
        "  a aaa         ",
        "  a             ",
        "  a             ",
        "  a             ",
        "  a    aaaaaa   ",
        "  a    a        ",
        "  aaaaaa        ",
        "       a        ",
        "       aaaaaaa  ",
        "                "
        };