/* XPM */
static char *zoomin_xpm[]={
"24 24 6 1",
". c None",
"a c #000000",
"d c #939393",
"b c #a1a1a1",
"# c #aeaeae",
"c c #ffffff",
"........................",
"........................",
"........................",
"........................",
".......#aaaabb#.........",
".....#aaccccaab#........",
".....accccccccab#.......",
"....#acccaacccabb#......",
"....accccaaccccab#......",
"....accaaaaaaccab#......",
"....accaaaaaaccab#......",
"....accccaaccccab#......",
"....#acccaacccad#.......",
".....accccccccad#.......",
".....#aaccccaaad#.......",
".......#aaaa.aaab#......",
"..............aaab#.....",
"...............aaab.....",
"................aaa.....",
".................aa.....",
"........................",
"........................",
"........................",
"........................"};
