/* XPM */
static char *internal_xpm[]={
"24 24 3 1",
". c None",
"# c #000000",
"a c #808080",
"........................",
"........................",
"........................",
"........................",
"........................",
"......##########........",
"......#.................",
"......#.................",
"......#.a#a.#...........",
"......#.#.#.#...........",
"....###.#.#.##a.a#......",
"......#.###.#.#.#.......",
"......#.#.#.##a.a#......",
"......#.................",
"......#.................",
"......#.................",
"......##########........",
"........................",
"........................",
"........................",
"........................",
"........................",
"........................",
"........................"};
