/* XPM */
static char *zoomout_xpm[]={
"24 24 6 1",
". c None",
"a c #000000",
"d c #939393",
"b c #a1a1a1",
"# c #aeaeae",
"c c #ffffff",
"........................",
"........................",
"........................",
"........................",
".......#aaaabb#.........",
".....#aaccccaab#........",
".....accccccccab#.......",
"....#accccccccabb#......",
"....accccccccccab#......",
"....accaaaaaaccab#......",
"....accaaaaaaccab#......",
"....accccccccccab#......",
"....#accccccccad#.......",
".....accccccccad#.......",
".....#aaccccaaad#.......",
".......#aaaa.aaab#......",
"..............aaab#.....",
"...............aaab.....",
"................aaa.....",
".................aa.....",
"........................",
"........................",
"........................",
"........................"};
